<svg version="1.1" xmlns="http://www.w3.org/2000/svg" xmlns:xlink="http://www.w3.org/1999/xlink" width="33.8282" height="80.17311" viewBox="0,0,33.8282,80.17311"><g transform="translate(-223.0859,-139.91344)"><g data-paper-data="{&quot;isPaintingLayer&quot;:true}" fill="none" fill-rule="nonzero" stroke="#1700ff" stroke-width="0.5" stroke-linecap="none" stroke-linejoin="miter" stroke-miterlimit="10" stroke-dasharray="" stroke-dashoffset="0" font-family="none" font-weight="none" font-size="none" text-anchor="none" style="mix-blend-mode: normal"><path d="M233.02996,188.45293c8.21789,-3.93796 18.07216,-0.4684 22.01012,7.74949c3.93797,8.21789 0.4684,18.07216 -7.74949,22.01012c-8.21789,3.93797 -18.07216,0.4684 -22.01012,-7.74949c-3.93797,-8.21789 -0.4684,-18.07216 7.74949,-22.01012z" data-paper-data="{&quot;origPos&quot;:null,&quot;origRot&quot;:0}" fill="#2123ff" stroke-linecap="butt"/><path d="M243.90426,152.63062v0" data-paper-data="{&quot;origRot&quot;:0,&quot;origPos&quot;:null}" fill="none" stroke-linecap="round"/><path d="M248.79419,143.34549c5.69862,4.80785 6.42072,13.32502 1.61287,19.02363c-4.80785,5.69862 -13.32502,6.42072 -19.02363,1.61287c-5.69862,-4.80785 -6.42072,-13.32502 -1.61287,-19.02363c4.80785,-5.69862 13.32502,-6.42072 19.02363,-1.61287z" data-paper-data="{&quot;origPos&quot;:null,&quot;origRot&quot;:0}" fill="#2123ff" stroke-linecap="butt"/><path d="M226.46286,151.98041l-3.12696,51.00463" data-paper-data="{&quot;origRot&quot;:0,&quot;origPos&quot;:null}" fill="none" stroke-linecap="round"/><path d="M253.53555,153.23334l2.77235,49.44" data-paper-data="{&quot;origRot&quot;:0,&quot;origPos&quot;:null}" fill="none" stroke-linecap="round"/></g></g></svg>