<svg version="1.1" xmlns="http://www.w3.org/2000/svg" xmlns:xlink="http://www.w3.org/1999/xlink" width="26.3092" height="62.20437" viewBox="0,0,26.3092,62.20437"><g transform="translate(-226.53731,-148.42191)"><g data-paper-data="{&quot;isPaintingLayer&quot;:true}" fill="#21ff00" fill-rule="nonzero" stroke="#1700ff" stroke-width="0.5" stroke-linecap="none" stroke-linejoin="miter" stroke-miterlimit="10" stroke-dasharray="" stroke-dashoffset="0" font-family="none" font-weight="none" font-size="none" text-anchor="none" style="mix-blend-mode: normal"><path d="M229.60948,189.90707c4.24665,-5.63722 12.25909,-6.76448 17.89631,-2.51783c5.63722,4.24665 6.76448,12.25909 2.51782,17.8963c-4.24665,5.63722 -12.25909,6.76449 -17.8963,2.51784c-5.63722,-4.24665 -6.76449,-12.2591 -2.51783,-17.89631z" data-paper-data="{&quot;origPos&quot;:null,&quot;origRot&quot;:0}" stroke-linecap="butt"/><path d="M246.69436,151.16415c4.39823,3.74178 4.93039,10.34056 1.18861,14.73878c-3.74178,4.39823 -10.34056,4.93039 -14.73878,1.18861c-4.39823,-3.74178 -4.93039,-10.34056 -1.18861,-14.73878c3.74178,-4.39823 10.34056,-4.93039 14.73878,-1.18861z" data-paper-data="{&quot;origPos&quot;:null,&quot;origRot&quot;:0}" stroke-linecap="butt"/><path d="M229.37145,157.78075l-2.58413,39.49272" data-paper-data="{&quot;origPos&quot;:null,&quot;origRot&quot;:0}" stroke-linecap="round"/><path d="M252.32486,197.13701l-1.98982,-38.29971" data-paper-data="{&quot;origPos&quot;:null,&quot;origRot&quot;:0}" stroke-linecap="round"/></g></g></svg>