<svg version="1.1" xmlns="http://www.w3.org/2000/svg" xmlns:xlink="http://www.w3.org/1999/xlink" width="28.94557" height="68.5098" viewBox="0,0,28.94557,68.5098"><g transform="translate(-225.52722,-145.7451)"><g data-paper-data="{&quot;isPaintingLayer&quot;:true}" fill="#00e3ff" fill-rule="nonzero" stroke="#1700ff" stroke-width="0.5" stroke-linecap="none" stroke-linejoin="miter" stroke-miterlimit="10" stroke-dasharray="" stroke-dashoffset="0" font-family="none" font-weight="none" font-size="none" text-anchor="none" style="mix-blend-mode: normal"><path d="M228.91491,191.40629c4.70137,-6.19767 13.53678,-7.41063 19.73445,-2.70926c6.19767,4.70137 7.41063,13.53679 2.70925,19.73444c-4.70137,6.19767 -13.53678,7.41063 -19.73444,2.70927c-6.19767,-4.70137 -7.41063,-13.53678 -2.70926,-19.73445z" data-paper-data="{&quot;origPos&quot;:null,&quot;origRot&quot;:0}" stroke-linecap="butt"/><path d="M243.65513,156.66195v0" data-paper-data="{&quot;origPos&quot;:null,&quot;origRot&quot;:0}" stroke-linecap="round"/><path d="M247.88836,148.76701c4.83392,4.14035 5.39617,11.41543 1.25582,16.24935c-4.14035,4.83392 -11.41543,5.39617 -16.24935,1.25582c-4.83392,-4.14035 -5.39617,-11.41543 -1.25582,-16.24935c4.14035,-4.83392 11.41543,-5.39617 16.24935,-1.25582z" data-paper-data="{&quot;origPos&quot;:null,&quot;origRot&quot;:0}" stroke-linecap="butt"/><path d="M228.7708,155.99601l-2.99358,43.51907" data-paper-data="{&quot;origPos&quot;:null,&quot;origRot&quot;:0}" stroke-linecap="round"/><path d="M251.87283,157.2377l2.05219,42.22099" data-paper-data="{&quot;origPos&quot;:null,&quot;origRot&quot;:0}" stroke-linecap="round"/></g></g></svg>