<svg version="1.1" xmlns="http://www.w3.org/2000/svg" xmlns:xlink="http://www.w3.org/1999/xlink" width="22.79286" height="53.79176" viewBox="0,0,22.79286,53.79176"><g transform="translate(-228.91286,-153.09784)"><g data-paper-data="{&quot;isPaintingLayer&quot;:true}" fill="#ff004a" fill-rule="nonzero" stroke="#1700ff" stroke-width="0.5" stroke-linecap="none" stroke-linejoin="miter" stroke-miterlimit="10" stroke-dasharray="" stroke-dashoffset="0" font-family="none" font-weight="none" font-size="none" text-anchor="none" style="mix-blend-mode: normal"><path d="M231.54036,189.04405c3.62177,-4.90297 10.53242,-5.94158 15.43539,-2.31982c4.90297,3.62177 5.94158,10.53243 2.3198,15.43539c-3.62177,4.90297 -10.53242,5.94158 -15.43539,2.31982c-4.90297,-3.62177 -5.94158,-10.53243 -2.31981,-15.4354z" data-paper-data="{&quot;origPos&quot;:null,&quot;origRot&quot;:0}" stroke-linecap="butt"/><path d="M242.74279,161.6738v0" data-paper-data="{&quot;origPos&quot;:null,&quot;origRot&quot;:0}" stroke-linecap="round"/><path d="M245.98081,155.44565c3.82884,3.1958 4.34201,8.8904 1.14621,12.71924c-3.1958,3.82884 -8.8904,4.34202 -12.71924,1.14622c-3.82884,-3.1958 -4.34202,-8.89041 -1.14622,-12.71925c3.1958,-3.82884 8.89041,-4.34202 12.71925,-1.14621z" data-paper-data="{&quot;origPos&quot;:null,&quot;origRot&quot;:0}" stroke-linecap="butt"/><path d="M229.16286,195.42883l1.91103,-34.1282" data-paper-data="{&quot;origPos&quot;:null,&quot;origRot&quot;:0}" stroke-linecap="round"/><path d="M249.18732,162.04286l2.0295,33.06073" data-paper-data="{&quot;origPos&quot;:null,&quot;origRot&quot;:0}" stroke-linecap="round"/></g></g></svg>