<svg version="1.1" xmlns="http://www.w3.org/2000/svg" xmlns:xlink="http://www.w3.org/1999/xlink" width="93.48506" height="162.20833" viewBox="0,0,93.48506,162.20833"><g transform="translate(-193.75526,-94.29167)"><g data-paper-data="{&quot;isPaintingLayer&quot;:true}" fill="none" fill-rule="nonzero" stroke="none" stroke-width="0" stroke-linecap="butt" stroke-linejoin="miter" stroke-miterlimit="10" stroke-dasharray="" stroke-dashoffset="0" font-family="none" font-weight="none" font-size="none" text-anchor="none" style="mix-blend-mode: normal"><path d="M223.40001,232.1c0,0 -5.03119,-4.26588 -11.2803,-4.03877c-5.93548,0.21571 -11.20637,5.61202 -11.20637,5.61202c0,0 -4.36665,-47.45868 -7.11819,-73.70418c-0.51391,-4.90189 4.02784,-0.55099 8.4562,-2.11441c4.45108,-1.57144 7.99866,-6.60466 7.99866,-6.60466c0,0 3.19361,-7.4634 1.2215,-12.23822c-1.95546,-4.73449 -9.09392,-7.51177 -3.9715,-7.51177c25.68152,0 40.12154,0.95913 65.80162,0.68742c3.04176,-0.03218 -3.20495,2.49432 -4.33377,5.31905c-1.75433,4.38998 -0.76785,11.59353 -0.76785,11.59353c0,0 4.78016,7.38542 9.79502,9.01132c9.72388,1.00735 9.45203,-4.99474 9.13735,-1.0927c-2.30878,28.62887 -3.63685,47.52666 -5.98574,76.15227c-0.23444,2.857 -1.71069,-2.56451 -4.48492,-3.28636c-4.32248,-1.1247 -4.0861,-1.21928 -10.57636,-1.44667c-0.3379,-0.01184 -7.68536,3.66214 -7.68536,3.66214c0,0 -4.84992,5.73174 -4.89858,6c-1.12461,6.2 -0.48371,4.37355 -0.30085,10.20257c0.09157,2.9188 7.62108,8.19743 4.70084,8.19743h-33.2c0,0 5.03217,-8.29643 4.79673,-12.7105c-0.27247,-5.10835 -6.09815,-11.6895 -6.09815,-11.6895z" data-paper-data="{&quot;origPos&quot;:null}" fill="#21ff81" stroke="#000000"/><path d="M214.97696,117.72918c0,-12.94418 10.72651,-23.4375 23.95833,-23.4375c13.23182,0 23.95834,10.49332 23.95834,23.4375c0,12.94418 -10.72652,23.4375 -23.95834,23.4375c-13.23182,0 -23.95833,-10.49332 -23.95833,-23.4375z" data-paper-data="{&quot;origPos&quot;:null}" fill="#7d4e14" stroke="none"/></g></g></svg>